<svg xmlns="http://www.w3.org/2000/svg" version="1.1" xmlns:xlink="http://www.w3.org/1999/xlink" xmlns:svgjs="http://svgjs.dev/svgjs" width="0" height="0" viewBox="0 0 0 0"><rect width="0" height="0" fill="#ffffff"></rect><g transform="matrix(0.75,0,0,0.75,249.090909090909,557.0110148107279)"><svg viewBox="0 0 396 102" data-background-color="#ffffff" preserveAspectRatio="xMidYMid meet" height="0" width="0" xmlns="http://www.w3.org/2000/svg" xmlns:xlink="http://www.w3.org/1999/xlink"><g id="tight-bounds" transform="matrix(1,0,0,1,0.2400000000000091,-0.035918474289331925)"><svg viewBox="0 0 395.52 102.07183694857868" height="102.07183694857868" width="395.52"><g><svg viewBox="0 0 633.8394563586896 163.57493335613856" height="102.07183694857868" width="395.52"><g><rect width="10.798968351059157" height="163.57493335613856" x="199.25093735040764" y="0" fill="#4d331f" opacity="1" stroke-width="0" stroke="transparent" fill-opacity="1" class="rect-qz-0" data-fill-palette-color="primary" rx="1%" id="qz-0" data-palette-color="#4d331f"></rect></g><g transform="matrix(1,0,0,1,238.31945635868973,0.40690281929386174)"><svg viewBox="0 0 395.52 162.76112771755083" height="162.76112771755083" width="395.52"><g id="textblocktransform"><svg viewBox="0 0 395.52 162.76112771755083" height="162.76112771755083" width="395.52" id="textblock"><g><svg viewBox="0 0 395.52 119.7476687898089" height="119.7476687898089" width="395.52"><g transform="matrix(1,0,0,1,0,0)"><svg width="395.52" viewBox="4 -34.85 117.74 35.65" height="119.7476687898089" data-palette-color="#4d331f"><path d="M4 0L4-34.1 15.4-34.1Q20-34.1 22.75-31.3 25.5-28.5 25.5-23.55L25.5-23.55Q25.5-18.65 22.63-15.85 19.75-13.05 15-13.05L15-13.05 7.75-13.05 7.75 0 4 0ZM7.75-16.15L14.9-16.15Q18.25-16.15 20-18.03 21.75-19.9 21.75-23.55L21.75-23.55Q21.75-27.2 20-29.1 18.25-31 14.9-31L14.9-31 7.75-31 7.75-16.15ZM41.95 0L38.25 0 38.25-31 27.5-31 27.5-34.1 52.7-34.1 52.7-31 41.95-31 41.95 0ZM74-4.2L86.5-34.1 90.7-34.1 90.7 0 87 0 87-27.25 75.6 0 72.1 0 61.2-27.15 61.2 0 57.45 0 57.45-34.1 62.05-34.1 74-4.2ZM110.04 0.8Q106.29 0.8 102.74-1.07 99.19-2.95 96.84-6.15L96.84-6.15 99.89-8.85Q101.69-6 104.49-4.33 107.29-2.65 110.54-2.65L110.54-2.65Q114.09-2.65 115.94-4.23 117.79-5.8 117.79-8.5L117.79-8.5Q117.79-11.45 115.82-13.03 113.84-14.6 109.54-15.8L109.54-15.8Q98.74-18.45 98.74-25.6L98.74-25.6Q98.74-30.05 101.64-32.45 104.54-34.85 109.69-34.85L109.69-34.85Q113.44-34.85 116.42-33.45 119.39-32.05 121.74-29.15L121.74-29.15 118.79-26.65Q116.99-29.1 114.84-30.28 112.69-31.45 109.69-31.45L109.69-31.45Q106.54-31.45 104.54-29.98 102.54-28.5 102.54-25.95L102.54-25.95Q102.54-23.35 104.39-21.83 106.24-20.3 110.64-19.25L110.64-19.25Q115.84-17.85 118.72-15.4 121.59-12.95 121.59-8.5L121.59-8.5Q121.59-5.75 120.19-3.65 118.79-1.55 116.17-0.38 113.54 0.8 110.04 0.8L110.04 0.8Z" opacity="1" transform="matrix(1,0,0,1,0,0)" fill="#4d331f" class="wordmark-text-0" data-fill-palette-color="primary" id="text-0"></path></svg></g></svg></g><g transform="matrix(1,0,0,1,0,148.01721944703183)"><svg viewBox="0 0 232.20979200000002 14.74390827051902" height="14.74390827051902" width="232.20979200000002"><g transform="matrix(1,0,0,1,0,0)"><svg width="232.20979200000002" viewBox="2.25 -41.5 858.28 54.5" height="14.74390827051902" data-palette-color="#e6b17e"><path d="M32.9-28.85L32.9-28.85Q32.9-26.2 32.05-24.1 31.2-22 29.38-20.55 27.55-19.1 24.63-18.3 21.7-17.5 17.5-17.5L17.5-17.5 13-17.5 13-7.85Q13-6 13.23-4.83 13.45-3.65 14.18-3 14.9-2.35 16.28-2.13 17.65-1.9 19.9-1.9L19.9-1.9 19.9 0 2.25 0 2.25-1.9Q4-1.95 5.08-2.2 6.15-2.45 6.75-3.05 7.35-3.65 7.55-4.75 7.75-5.85 7.75-7.6L7.75-7.6 7.75-30.9Q7.75-32.65 7.58-33.73 7.4-34.8 6.88-35.43 6.35-36.05 5.35-36.27 4.35-36.5 2.75-36.6L2.75-36.6 2.75-38.5 18.45-38.5Q25.35-38.5 29.13-35.95 32.9-33.4 32.9-28.85ZM13-35.3L13-20 16.55-20Q21.55-20 23.98-21.93 26.4-23.85 26.4-28.25L26.4-28.25Q26.4-32.5 24.48-34.33 22.55-36.15 18.45-36.15L18.45-36.15 13.85-36.15Q13-36.15 13-35.3L13-35.3ZM45.45-9.65L45.45-7.95Q45.45-5.9 45.55-4.7 45.65-3.5 46.07-2.88 46.5-2.25 47.3-2.05 48.1-1.85 49.55-1.75L49.55-1.75 49.55 0 36.25 0 36.25-1.75Q37.7-1.8 38.55-2.02 39.4-2.25 39.85-2.85 40.3-3.45 40.42-4.58 40.55-5.7 40.55-7.6L40.55-7.6 40.55-13.45Q40.55-16.85 40.47-18.75 40.4-20.65 39.97-21.55 39.55-22.45 38.65-22.63 37.75-22.8 36.15-22.8L36.15-22.8 36.15-24.55 44.9-26.45 45.6-20.25 45.8-20.25Q46.45-21.75 47.42-23 48.4-24.25 49.55-25.13 50.7-26 51.95-26.5 53.2-27 54.5-27L54.5-27Q56.1-27 57.02-26.23 57.95-25.45 57.95-24.15L57.95-24.15Q57.95-22.95 57.2-22.28 56.45-21.6 55.05-21.6L55.05-21.6Q54.25-21.6 53.7-21.8 53.15-22 52.72-22.23 52.3-22.45 51.92-22.65 51.55-22.85 51.1-22.85L51.1-22.85Q49.75-22.85 48.4-21.13 47.05-19.4 46.3-16.75L46.3-16.75Q45.9-15.3 45.67-13.48 45.45-11.65 45.45-9.65L45.45-9.65ZM73.9-27L73.9-27Q76.75-27 79.3-25.98 81.85-24.95 83.77-23.15 85.7-21.35 86.82-18.88 87.95-16.4 87.95-13.45L87.95-13.45Q87.95-10.4 86.82-7.85 85.7-5.3 83.77-3.45 81.85-1.6 79.3-0.55 76.75 0.5 73.9 0.5L73.9 0.5Q71.1 0.5 68.57-0.53 66.05-1.55 64.15-3.4 62.25-5.25 61.15-7.83 60.05-10.4 60.05-13.45L60.05-13.45Q60.05-16.4 61.15-18.9 62.25-21.4 64.15-23.2 66.05-25 68.57-26 71.1-27 73.9-27ZM73.9-24.6L73.9-24.6Q72.05-24.6 70.52-23.8 69-23 67.92-21.53 66.85-20.05 66.27-17.98 65.7-15.9 65.7-13.4L65.7-13.4Q65.7-10.8 66.27-8.7 66.85-6.6 67.92-5.13 69-3.65 70.5-2.85 72-2.05 73.9-2.05L73.9-2.05Q75.8-2.05 77.35-2.85 78.9-3.65 80-5.15 81.1-6.65 81.7-8.75 82.3-10.85 82.3-13.4L82.3-13.4Q82.3-15.9 81.7-17.95 81.1-20 80-21.48 78.9-22.95 77.35-23.78 75.8-24.6 73.9-24.6ZM100.99-27L100.99 0.1Q100.99 6.35 98.37 9.68 95.74 13 90.74 13L90.74 13Q87.54 13 85.52 11.73 83.49 10.45 83.49 8.35L83.49 8.35Q83.49 7.2 84.17 6.6 84.84 6 86.04 6L86.04 6Q86.94 6 87.42 6.43 87.89 6.85 88.64 8.35L88.64 8.35Q89.34 9.85 89.94 10.35 90.54 10.85 91.79 10.85L91.79 10.85Q94.19 10.85 95.14 9.2 96.09 7.55 96.09 3.4L96.09 3.4 96.09-14Q96.09-16.9 96.02-18.78 95.94-20.65 95.74-21.35L95.74-21.35Q95.49-22.5 94.59-22.93 93.69-23.35 91.19-23.35L91.19-23.35 91.19-25.1 100.99-27ZM95.34-37.15L95.34-37.15Q95.34-38.45 96.24-39.35 97.14-40.25 98.44-40.25L98.44-40.25Q99.74-40.25 100.64-39.35 101.54-38.45 101.54-37.15L101.54-37.15Q101.54-35.85 100.64-34.95 99.74-34.05 98.44-34.05L98.44-34.05Q97.14-34.05 96.24-34.95 95.34-35.85 95.34-37.15ZM130.09-6.05L131.64-4.65Q127.39 0.5 121.09 0.5L121.09 0.5Q118.14 0.5 115.74-0.48 113.34-1.45 111.62-3.23 109.89-5 108.94-7.48 107.99-9.95 107.99-12.95L107.99-12.95Q107.99-16 108.99-18.6 109.99-21.2 111.82-23.05 113.64-24.9 116.17-25.95 118.69-27 121.69-27L121.69-27Q126.54-27 129.19-24.38 131.84-21.75 131.84-16.85L131.84-16.85Q131.84-16.15 131.57-16 131.29-15.85 130.29-15.85L130.29-15.85 113.84-15.85Q113.74-15.45 113.69-14.88 113.64-14.3 113.64-13.6L113.64-13.6Q113.64-11 114.27-8.88 114.89-6.75 116.07-5.25 117.24-3.75 118.87-2.93 120.49-2.1 122.49-2.1L122.49-2.1Q124.59-2.1 126.39-3.03 128.19-3.95 130.09-6.05L130.09-6.05ZM114.19-18.15L123.39-18.15Q124.39-18.15 124.99-18.2 125.59-18.25 125.89-18.4 126.19-18.55 126.29-18.82 126.39-19.1 126.39-19.55L126.39-19.55Q126.39-21.85 124.92-23.23 123.44-24.6 120.89-24.6L120.89-24.6Q115.49-24.6 114.19-18.15L114.19-18.15ZM157.99-5.6L159.49-4.15Q157.69-1.95 154.84-0.73 151.99 0.5 148.69 0.5L148.69 0.5Q146.04 0.5 143.81-0.48 141.59-1.45 139.99-3.23 138.39-5 137.51-7.5 136.64-10 136.64-13.05L136.64-13.05Q136.64-16.25 137.64-18.82 138.64-21.4 140.46-23.23 142.29-25.05 144.86-26.03 147.44-27 150.54-27L150.54-27Q152.49-27 154.09-26.68 155.69-26.35 156.86-25.78 158.04-25.2 158.69-24.38 159.34-23.55 159.34-22.6L159.34-22.6Q159.34-21.6 158.69-21.05 158.04-20.5 156.89-20.5L156.89-20.5Q155.99-20.5 155.39-20.88 154.79-21.25 153.84-22.55L153.84-22.55Q152.84-23.7 151.91-24.18 150.99-24.65 149.54-24.65L149.54-24.65Q145.99-24.65 144.16-21.9 142.34-19.15 142.34-13.8L142.34-13.8Q142.34-8.05 144.36-5.08 146.39-2.1 150.29-2.1L150.29-2.1Q152.39-2.1 154.24-2.93 156.09-3.75 157.99-5.6L157.99-5.6ZM165.99-23.35L162.99-23.35 162.99-25.2Q165.64-26.75 167.14-28.3 168.64-29.85 169.44-32L169.44-32 170.89-32 170.89-25.7 177.59-25.7 177.59-23.35 170.89-23.35 170.89-8.15Q170.89-6.4 171.06-5.2 171.24-4 171.64-3.28 172.04-2.55 172.69-2.25 173.34-1.95 174.34-1.95L174.34-1.95Q175.59-1.95 176.46-2.48 177.34-3 178.19-4.25L178.19-4.25 179.44-3.3Q178.74-1.45 177.01-0.48 175.29 0.5 172.74 0.5L172.74 0.5Q169.44 0.5 167.71-1.07 165.99-2.65 165.99-5.6L165.99-5.6 165.99-23.35ZM231.48-38.5L231.98-28.95 229.93-28.95Q229.78-31.1 229.23-32.55 228.68-34 227.66-34.83 226.63-35.65 225.08-36 223.53-36.35 221.38-36.35L221.38-36.35Q219.53-36.35 218.41-36.27 217.28-36.2 216.68-36 216.08-35.8 215.91-35.52 215.73-35.25 215.73-34.8L215.73-34.8 215.73-8.05Q215.73-6.45 215.96-5.3 216.18-4.15 216.86-3.43 217.53-2.7 218.81-2.33 220.08-1.95 222.18-1.9L222.18-1.9 222.18 0 203.28 0 203.28-1.9Q205.38-1.95 206.68-2.33 207.98-2.7 208.66-3.43 209.33-4.15 209.56-5.3 209.78-6.45 209.78-8.05L209.78-8.05 209.78-34.8Q209.78-35.25 209.61-35.52 209.43-35.8 208.91-36 208.38-36.2 207.43-36.27 206.48-36.35 204.88-36.35L204.88-36.35Q202.93-36.35 201.26-36.2 199.58-36.05 198.36-35.33 197.13-34.6 196.38-33.1 195.63-31.6 195.58-28.95L195.58-28.95 193.73-28.95 193.73-38.5 231.48-38.5ZM245.08-10.85L245.08-14.8Q242.23-13.7 240.25-12.65 238.28-11.6 237.08-10.55 235.88-9.5 235.35-8.45 234.83-7.4 234.83-6.3L234.83-6.3Q234.83-4.65 235.93-3.6 237.03-2.55 238.83-2.55L238.83-2.55Q240.13-2.55 241.25-3.2 242.38-3.85 243.23-4.98 244.08-6.1 244.58-7.63 245.08-9.15 245.08-10.85L245.08-10.85ZM237.88-13.8L245.08-16.95 245.08-19Q245.08-25.1 239.88-25.1L239.88-25.1Q239.03-25.1 238.43-24.95 237.83-24.8 237.43-24.45 237.03-24.1 236.7-23.45 236.38-22.8 236.08-21.85L236.08-21.85Q235.53-20.4 235-19.93 234.48-19.45 233.48-19.45L233.48-19.45Q230.98-19.45 230.98-21.95L230.98-21.95Q230.98-24.35 233.53-25.68 236.08-27 240.78-27L240.78-27Q245.78-27 247.88-25.23 249.98-23.45 249.98-19.2L249.98-19.2 249.98-8Q249.98-2.3 252.23-2.3L252.23-2.3Q252.93-2.3 253.58-2.48 254.23-2.65 254.68-3.4L254.68-3.4 255.38-2.2Q254.78-1.05 253.18-0.28 251.58 0.5 249.83 0.5L249.83 0.5Q247.63 0.5 246.55-0.9 245.48-2.3 245.48-4.85L245.48-4.85 245.23-4.85Q243.93-2.4 241.63-0.98 239.33 0.45 236.53 0.45L236.53 0.45Q233.38 0.45 231.58-1.15 229.78-2.75 229.78-5.45L229.78-5.45Q229.78-6.65 230.2-7.75 230.63-8.85 231.58-9.85 232.53-10.85 234.08-11.83 235.63-12.8 237.88-13.8L237.88-13.8ZM260.63-1.75L259.63 0 258.53 0 258.53-8.6 259.78-8.6Q261.73-1.55 266.88-1.55L266.88-1.55Q268.88-1.55 270.05-2.53 271.23-3.5 271.23-5.5L271.23-5.5Q271.23-6.25 271-6.78 270.78-7.3 270.15-7.88 269.53-8.45 268.4-9.2 267.28-9.95 265.43-11.1L265.43-11.1Q263.73-12.15 262.48-13.05 261.23-13.95 260.38-14.88 259.53-15.8 259.1-16.85 258.68-17.9 258.68-19.3L258.68-19.3Q258.68-21 259.25-22.43 259.83-23.85 260.83-24.85 261.83-25.85 263.18-26.43 264.53-27 266.13-27L266.13-27Q267.48-27 268.93-26.58 270.38-26.15 271.48-25.45L271.48-25.45 272.48-26.5 273.43-26.5 273.43-19.3 272.13-19.3Q271.03-22.35 269.73-23.65 268.43-24.95 266.53-24.95L266.53-24.95Q264.83-24.95 263.8-24.05 262.78-23.15 262.78-21.55L262.78-21.55Q262.78-20.7 263.05-20.08 263.33-19.45 263.93-18.85 264.53-18.25 265.45-17.63 266.38-17 267.68-16.2L267.68-16.2Q269.83-14.85 271.35-13.8 272.88-12.75 273.83-11.73 274.78-10.7 275.23-9.6 275.68-8.5 275.68-7.1L275.68-7.1Q275.68-3.55 273.38-1.53 271.08 0.5 267.33 0.5L267.33 0.5Q263.43 0.5 260.63-1.75L260.63-1.75ZM295.42 0L295.42-1.75Q297.07-1.75 297.7-1.9 298.32-2.05 298.32-2.3L298.32-2.3Q298.27-2.7 297.52-3.75 296.77-4.8 295.57-6.25L295.57-6.25 290.27-12.65 288.42-10.9 288.42-7.95Q288.42-6 288.6-4.83 288.77-3.65 289.25-2.98 289.72-2.3 290.65-2.05 291.57-1.8 293.07-1.75L293.07-1.75 293.07 0 278.87 0 278.87-1.75Q280.37-1.8 281.3-2.05 282.22-2.3 282.75-2.95 283.27-3.6 283.47-4.7 283.67-5.8 283.67-7.6L283.67-7.6 283.67-28.55Q283.67-32.35 283.6-34.3 283.52-36.25 283.07-36.95L283.07-36.95Q282.62-37.65 281.57-37.77 280.52-37.9 278.77-37.9L278.77-37.9 278.77-39.6 288.42-41.5 288.42-14.05 293.07-18.6Q295.32-20.85 296.42-21.93 297.52-23 297.52-23.55L297.52-23.55Q297.52-24.1 296.47-24.43 295.42-24.75 293.47-24.75L293.47-24.75 293.47-26.5 306.47-26.5 306.47-24.75Q305.52-24.75 304.82-24.65 304.12-24.55 303.5-24.25 302.87-23.95 302.17-23.43 301.47-22.9 300.57-22.1L300.57-22.1 293.37-15.7 303.27-4.5Q303.97-3.65 304.55-3.13 305.12-2.6 305.7-2.3 306.27-2 306.95-1.88 307.62-1.75 308.57-1.75L308.57-1.75 308.57 0 295.42 0ZM349.77-8.95L349.97-8.95 362.97-38.5 374.17-38.5 374.17-36.6Q372.57-36.55 371.59-36.2 370.62-35.85 370.09-35.02 369.57-34.2 369.39-32.75 369.22-31.3 369.22-29.05L369.22-29.05 369.22-9.45Q369.22-6.95 369.42-5.5 369.62-4.05 370.19-3.25 370.77-2.45 371.84-2.2 372.92-1.95 374.67-1.9L374.67-1.9 374.67 0 358.47 0 358.47-1.9Q360.22-1.95 361.29-2.23 362.37-2.5 362.97-3.25 363.57-4 363.77-5.38 363.97-6.75 363.97-9.1L363.97-9.1 363.97-32.3 363.47-32.3 348.87 0.5 347.77 0.5 333.42-32.3 333.22-32.3 333.22-9.45Q333.22-6.95 333.42-5.5 333.62-4.05 334.19-3.25 334.77-2.45 335.84-2.2 336.92-1.95 338.67-1.9L338.67-1.9 338.67 0 324.72 0 324.72-1.9Q326.47-1.95 327.54-2.23 328.62-2.5 329.22-3.25 329.82-4 330.02-5.38 330.22-6.75 330.22-9.1L330.22-9.1 330.22-29.4Q330.22-31.5 330.04-32.88 329.87-34.25 329.34-35.05 328.82-35.85 327.82-36.18 326.82-36.5 325.22-36.6L325.22-36.6 325.22-38.5 337.17-38.5 349.77-8.95ZM394.42-10.85L394.42-14.8Q391.57-13.7 389.59-12.65 387.62-11.6 386.42-10.55 385.22-9.5 384.69-8.45 384.17-7.4 384.17-6.3L384.17-6.3Q384.17-4.65 385.27-3.6 386.37-2.55 388.17-2.55L388.17-2.55Q389.47-2.55 390.59-3.2 391.72-3.85 392.57-4.98 393.42-6.1 393.92-7.63 394.42-9.15 394.42-10.85L394.42-10.85ZM387.22-13.8L394.42-16.95 394.42-19Q394.42-25.1 389.22-25.1L389.22-25.1Q388.37-25.1 387.77-24.95 387.17-24.8 386.77-24.45 386.37-24.1 386.04-23.45 385.72-22.8 385.42-21.85L385.42-21.85Q384.87-20.4 384.34-19.93 383.82-19.45 382.82-19.45L382.82-19.45Q380.32-19.45 380.32-21.95L380.32-21.95Q380.32-24.35 382.87-25.68 385.42-27 390.12-27L390.12-27Q395.12-27 397.22-25.23 399.32-23.45 399.32-19.2L399.32-19.2 399.32-8Q399.32-2.3 401.57-2.3L401.57-2.3Q402.27-2.3 402.92-2.48 403.57-2.65 404.02-3.4L404.02-3.4 404.72-2.2Q404.12-1.05 402.52-0.28 400.92 0.5 399.17 0.5L399.17 0.5Q396.97 0.5 395.89-0.9 394.82-2.3 394.82-4.85L394.82-4.85 394.57-4.85Q393.27-2.4 390.97-0.98 388.67 0.45 385.87 0.45L385.87 0.45Q382.72 0.45 380.92-1.15 379.12-2.75 379.12-5.45L379.12-5.45Q379.12-6.65 379.54-7.75 379.97-8.85 380.92-9.85 381.87-10.85 383.42-11.83 384.97-12.8 387.22-13.8L387.22-13.8ZM415.46-14.55L415.46-7.85Q415.46-5.8 415.56-4.63 415.66-3.45 416.09-2.83 416.51-2.2 417.34-2 418.16-1.8 419.61-1.7L419.61-1.7 419.61 0 406.51 0 406.51-1.7Q407.91-1.8 408.74-2 409.56-2.2 410.01-2.8 410.46-3.4 410.59-4.5 410.71-5.6 410.71-7.5L410.71-7.5 410.71-14.15Q410.71-20.1 410.41-21.4L410.41-21.4Q410.26-22.05 410.04-22.48 409.81-22.9 409.36-23.13 408.91-23.35 408.21-23.43 407.51-23.5 406.41-23.5L406.41-23.5 406.41-25.1 414.41-27 415.01-22.05 415.21-22.05Q417.11-24.4 419.66-25.7 422.21-27 425.21-27L425.21-27Q427.51-27 429.41-26.25 431.31-25.5 432.31-24.2L432.31-24.2Q433.16-23.05 433.51-21.23 433.86-19.4 433.86-16.2L433.86-16.2 433.86-7.85Q433.86-5.8 433.99-4.63 434.11-3.45 434.51-2.83 434.91-2.2 435.74-2 436.56-1.8 437.91-1.7L437.91-1.7 437.91 0 424.96 0 424.96-1.7Q426.36-1.75 427.19-1.98 428.01-2.2 428.44-2.8 428.86-3.4 428.99-4.53 429.11-5.65 429.11-7.5L429.11-7.5 429.11-14.1Q429.11-16.95 428.81-18.9 428.51-20.85 427.84-22.05 427.16-23.25 426.06-23.78 424.96-24.3 423.41-24.3L423.41-24.3Q421.16-24.3 419.29-23.13 417.41-21.95 416.36-19.9L416.36-19.9Q416.11-19.4 415.94-18.95 415.76-18.5 415.66-17.9 415.56-17.3 415.51-16.53 415.46-15.75 415.46-14.55L415.46-14.55ZM456.56-10.85L456.56-14.8Q453.71-13.7 451.74-12.65 449.76-11.6 448.56-10.55 447.36-9.5 446.84-8.45 446.31-7.4 446.31-6.3L446.31-6.3Q446.31-4.65 447.41-3.6 448.51-2.55 450.31-2.55L450.31-2.55Q451.61-2.55 452.74-3.2 453.86-3.85 454.71-4.98 455.56-6.1 456.06-7.63 456.56-9.15 456.56-10.85L456.56-10.85ZM449.36-13.8L456.56-16.95 456.56-19Q456.56-25.1 451.36-25.1L451.36-25.1Q450.51-25.1 449.91-24.95 449.31-24.8 448.91-24.45 448.51-24.1 448.19-23.45 447.86-22.8 447.56-21.85L447.56-21.85Q447.01-20.4 446.49-19.93 445.96-19.45 444.96-19.45L444.96-19.45Q442.46-19.45 442.46-21.95L442.46-21.95Q442.46-24.35 445.01-25.68 447.56-27 452.26-27L452.26-27Q457.26-27 459.36-25.23 461.46-23.45 461.46-19.2L461.46-19.2 461.46-8Q461.46-2.3 463.71-2.3L463.71-2.3Q464.41-2.3 465.06-2.48 465.71-2.65 466.16-3.4L466.16-3.4 466.86-2.2Q466.26-1.05 464.66-0.28 463.06 0.5 461.31 0.5L461.31 0.5Q459.11 0.5 458.04-0.9 456.96-2.3 456.96-4.85L456.96-4.85 456.71-4.85Q455.41-2.4 453.11-0.98 450.81 0.45 448.01 0.45L448.01 0.45Q444.86 0.45 443.06-1.15 441.26-2.75 441.26-5.45L441.26-5.45Q441.26-6.65 441.69-7.75 442.11-8.85 443.06-9.85 444.01-10.85 445.56-11.83 447.11-12.8 449.36-13.8L449.36-13.8ZM480.51-10.75L480.51-10.75Q482.61-10.75 483.78-12.65 484.96-14.55 484.96-18L484.96-18Q484.96-21.4 483.78-23.28 482.61-25.15 480.46-25.15L480.46-25.15Q478.31-25.15 477.03-23.25 475.76-21.35 475.76-18.05L475.76-18.05Q475.76-14.75 477.06-12.75 478.36-10.75 480.51-10.75ZM477.76-4.9L477.76-4.9Q478.96-4.8 479.96-4.7 480.96-4.6 481.93-4.5 482.91-4.4 483.88-4.25 484.86-4.1 486.01-3.95L486.01-3.95Q489.61-3.4 491.78-1.18 493.96 1.05 493.96 4.4L493.96 4.4Q493.96 8.6 490.63 10.8 487.31 13 481.01 13L481.01 13Q478.21 13 475.88 12.5 473.56 12 471.91 11.08 470.26 10.15 469.33 8.85 468.41 7.55 468.41 6L468.41 6Q468.41 4.95 468.76 4.05 469.11 3.15 469.71 2.48 470.31 1.8 471.13 1.4 471.96 1 472.86 1L472.86 1Q474.56 1 475.91 2.05L475.91 2.05Q474.56 2.35 473.71 3.53 472.86 4.7 472.86 6.2L472.86 6.2Q472.86 8.4 475.03 9.6 477.21 10.8 481.21 10.8L481.21 10.8Q489.76 10.8 489.76 5.55L489.76 5.55Q489.76 3.55 488.41 2.23 487.06 0.9 485.21 0.65L485.21 0.65Q484.01 0.5 482.73 0.33 481.46 0.15 480.23 0 479.01-0.15 477.96-0.25 476.91-0.35 476.26-0.45L476.26-0.45Q473.46-0.75 472.01-1.95 470.56-3.15 470.56-5.25L470.56-5.25Q470.56-7 472.01-8.35 473.46-9.7 475.66-10.05L475.66-10.05 475.66-10.25Q474.56-10.7 473.61-11.53 472.66-12.35 471.98-13.4 471.31-14.45 470.91-15.68 470.51-16.9 470.51-18.2L470.51-18.2Q470.51-20.1 471.23-21.7 471.96-23.3 473.28-24.48 474.61-25.65 476.41-26.33 478.21-27 480.36-27L480.36-27Q482.56-27 484.51-26.33 486.46-25.65 487.86-24.35L487.86-24.35Q489.56-25.75 490.86-26.38 492.16-27 493.31-27L493.31-27Q495.11-27 496.18-26.18 497.26-25.35 497.26-23.95L497.26-23.95Q497.26-23.1 496.68-22.6 496.11-22.1 495.26-22.1L495.26-22.1Q494.56-22.1 494.11-22.35 493.66-22.6 493.28-22.88 492.91-23.15 492.51-23.4 492.11-23.65 491.51-23.65L491.51-23.65Q490.31-23.65 489.06-22.8L489.06-22.8Q490.26-20.95 490.26-18.15L490.26-18.15Q490.26-13.9 487.61-11.48 484.96-9.05 479.66-8.65L479.66-8.65Q476.61-8.4 475.41-8 474.21-7.6 474.21-6.55L474.21-6.55Q474.21-5.75 475.11-5.38 476.01-5 477.76-4.9ZM521.06-6.05L522.61-4.65Q518.36 0.5 512.06 0.5L512.06 0.5Q509.11 0.5 506.71-0.48 504.31-1.45 502.58-3.23 500.86-5 499.91-7.48 498.96-9.95 498.96-12.95L498.96-12.95Q498.96-16 499.96-18.6 500.96-21.2 502.78-23.05 504.61-24.9 507.13-25.95 509.66-27 512.66-27L512.66-27Q517.51-27 520.16-24.38 522.81-21.75 522.81-16.85L522.81-16.85Q522.81-16.15 522.53-16 522.26-15.85 521.26-15.85L521.26-15.85 504.81-15.85Q504.71-15.45 504.66-14.88 504.61-14.3 504.61-13.6L504.61-13.6Q504.61-11 505.23-8.88 505.86-6.75 507.03-5.25 508.21-3.75 509.83-2.93 511.46-2.1 513.46-2.1L513.46-2.1Q515.56-2.1 517.36-3.03 519.16-3.95 521.06-6.05L521.06-6.05ZM505.16-18.15L514.36-18.15Q515.36-18.15 515.96-18.2 516.56-18.25 516.86-18.4 517.16-18.55 517.26-18.82 517.36-19.1 517.36-19.55L517.36-19.55Q517.36-21.85 515.88-23.23 514.41-24.6 511.86-24.6L511.86-24.6Q506.46-24.6 505.16-18.15L505.16-18.15ZM536.2-14.35L536.2-8Q536.2-5.9 536.3-4.7 536.4-3.5 536.83-2.88 537.25-2.25 538.05-2.05 538.85-1.85 540.3-1.75L540.3-1.75 540.3 0 527 0 527-1.75Q528.45-1.85 529.3-2.05 530.15-2.25 530.6-2.85 531.05-3.45 531.18-4.58 531.3-5.7 531.3-7.6L531.3-7.6 531.3-14Q531.3-16.85 531.23-18.75 531.15-20.65 530.95-21.35L530.95-21.35Q530.8-22 530.6-22.38 530.4-22.75 529.95-22.98 529.5-23.2 528.78-23.28 528.05-23.35 526.9-23.35L526.9-23.35 526.9-25.1 535.05-27 535.7-22 535.95-22Q538.2-24.55 540.68-25.78 543.15-27 546.15-27L546.15-27Q549.3-27 551.45-25.73 553.6-24.45 554.45-22.05L554.45-22.05 554.65-22.05Q556.5-24.4 559.15-25.7 561.8-27 564.8-27L564.8-27Q567.15-27 569.08-26.23 571-25.45 572-24.1L572-24.1Q572.9-22.95 573.28-21.08 573.65-19.2 573.65-15.95L573.65-15.95 573.65-8Q573.65-5.95 573.78-4.75 573.9-3.55 574.3-2.9 574.7-2.25 575.53-2.05 576.35-1.85 577.8-1.75L577.8-1.75 577.8 0 564.5 0 564.5-1.75Q565.9-1.8 566.75-2.02 567.6-2.25 568.05-2.88 568.5-3.5 568.63-4.6 568.75-5.7 568.75-7.6L568.75-7.6 568.75-13.9Q568.75-16.75 568.45-18.73 568.15-20.7 567.45-21.93 566.75-23.15 565.63-23.7 564.5-24.25 562.9-24.25L562.9-24.25Q560.7-24.25 558.78-23.03 556.85-21.8 555.75-19.75L555.75-19.75Q555.5-19.25 555.33-18.78 555.15-18.3 555.05-17.73 554.95-17.15 554.93-16.35 554.9-15.55 554.9-14.35L554.9-14.35 554.9-8Q554.9-5.95 555-4.75 555.1-3.55 555.53-2.9 555.95-2.25 556.8-2.05 557.65-1.85 559.1-1.75L559.1-1.75 559.1 0 545.8 0 545.8-1.75Q547.2-1.85 548.05-2.05 548.9-2.25 549.33-2.85 549.75-3.45 549.88-4.58 550-5.7 550-7.6L550-7.6 550-13.9Q550-16.8 549.7-18.78 549.4-20.75 548.73-21.98 548.05-23.2 546.95-23.73 545.85-24.25 544.25-24.25L544.25-24.25Q542-24.25 540.03-23.03 538.05-21.8 537.05-19.75L537.05-19.75Q536.8-19.25 536.63-18.78 536.45-18.3 536.35-17.73 536.25-17.15 536.23-16.35 536.2-15.55 536.2-14.35L536.2-14.35ZM603.35-6.05L604.9-4.65Q600.65 0.5 594.35 0.5L594.35 0.5Q591.4 0.5 589-0.48 586.6-1.45 584.88-3.23 583.15-5 582.2-7.48 581.25-9.95 581.25-12.95L581.25-12.95Q581.25-16 582.25-18.6 583.25-21.2 585.07-23.05 586.9-24.9 589.42-25.95 591.95-27 594.95-27L594.95-27Q599.8-27 602.45-24.38 605.1-21.75 605.1-16.85L605.1-16.85Q605.1-16.15 604.82-16 604.55-15.85 603.55-15.85L603.55-15.85 587.1-15.85Q587-15.45 586.95-14.88 586.9-14.3 586.9-13.6L586.9-13.6Q586.9-11 587.52-8.88 588.15-6.75 589.32-5.25 590.5-3.75 592.13-2.93 593.75-2.1 595.75-2.1L595.75-2.1Q597.85-2.1 599.65-3.03 601.45-3.95 603.35-6.05L603.35-6.05ZM587.45-18.15L596.65-18.15Q597.65-18.15 598.25-18.2 598.85-18.25 599.15-18.4 599.45-18.55 599.55-18.82 599.65-19.1 599.65-19.55L599.65-19.55Q599.65-21.85 598.17-23.23 596.7-24.6 594.15-24.6L594.15-24.6Q588.75-24.6 587.45-18.15L587.45-18.15ZM618.25-14.55L618.25-7.85Q618.25-5.8 618.35-4.63 618.45-3.45 618.87-2.83 619.3-2.2 620.12-2 620.95-1.8 622.4-1.7L622.4-1.7 622.4 0 609.3 0 609.3-1.7Q610.7-1.8 611.52-2 612.35-2.2 612.8-2.8 613.25-3.4 613.37-4.5 613.5-5.6 613.5-7.5L613.5-7.5 613.5-14.15Q613.5-20.1 613.2-21.4L613.2-21.4Q613.05-22.05 612.82-22.48 612.6-22.9 612.15-23.13 611.7-23.35 611-23.43 610.3-23.5 609.2-23.5L609.2-23.5 609.2-25.1 617.2-27 617.8-22.05 618-22.05Q619.9-24.4 622.45-25.7 625-27 628-27L628-27Q630.3-27 632.2-26.25 634.1-25.5 635.1-24.2L635.1-24.2Q635.95-23.05 636.3-21.23 636.65-19.4 636.65-16.2L636.65-16.2 636.65-7.85Q636.65-5.8 636.77-4.63 636.9-3.45 637.3-2.83 637.7-2.2 638.52-2 639.35-1.8 640.7-1.7L640.7-1.7 640.7 0 627.75 0 627.75-1.7Q629.15-1.75 629.97-1.98 630.8-2.2 631.22-2.8 631.65-3.4 631.77-4.53 631.9-5.65 631.9-7.5L631.9-7.5 631.9-14.1Q631.9-16.95 631.6-18.9 631.3-20.85 630.62-22.05 629.95-23.25 628.85-23.78 627.75-24.3 626.2-24.3L626.2-24.3Q623.95-24.3 622.07-23.13 620.2-21.95 619.15-19.9L619.15-19.9Q618.9-19.4 618.72-18.95 618.55-18.5 618.45-17.9 618.35-17.3 618.3-16.53 618.25-15.75 618.25-14.55L618.25-14.55ZM646.89-23.35L643.89-23.35 643.89-25.2Q646.54-26.75 648.04-28.3 649.54-29.85 650.34-32L650.34-32 651.79-32 651.79-25.7 658.49-25.7 658.49-23.35 651.79-23.35 651.79-8.15Q651.79-6.4 651.97-5.2 652.14-4 652.54-3.28 652.94-2.55 653.59-2.25 654.24-1.95 655.24-1.95L655.24-1.95Q656.49-1.95 657.37-2.48 658.24-3 659.09-4.25L659.09-4.25 660.34-3.3Q659.64-1.45 657.92-0.48 656.19 0.5 653.64 0.5L653.64 0.5Q650.34 0.5 648.62-1.07 646.89-2.65 646.89-5.6L646.89-5.6 646.89-23.35ZM678.79-0.55L678.04-11.75 679.89-11.75Q680.24-9.5 681.21-7.7 682.19-5.9 683.66-4.65 685.14-3.4 687.06-2.73 688.99-2.05 691.24-2.05L691.24-2.05Q694.94-2.05 697.09-3.8 699.24-5.55 699.24-8.55L699.24-8.55Q699.24-9.8 698.81-10.85 698.39-11.9 697.39-12.88 696.39-13.85 694.71-14.8 693.04-15.75 690.49-16.85L690.49-16.85Q687.39-18.2 685.29-19.45 683.19-20.7 681.94-22.05 680.69-23.4 680.16-24.93 679.64-26.45 679.64-28.4L679.64-28.4Q679.64-30.7 680.46-32.65 681.29-34.6 682.79-36.02 684.29-37.45 686.34-38.23 688.39-39 690.84-39L690.84-39Q693.04-39 694.94-38.3 696.84-37.6 698.79-36.05L698.79-36.05 700.09-38.3 701.24-38.3 701.79-28.35 699.94-28.35Q698.74-32.45 696.46-34.45 694.19-36.45 690.99-36.45L690.99-36.45Q687.94-36.45 686.14-34.95 684.34-33.45 684.34-30.9L684.34-30.9Q684.34-29.7 684.74-28.73 685.14-27.75 686.04-26.88 686.94-26 688.39-25.13 689.84-24.25 691.99-23.3L691.99-23.3Q695.69-21.65 698.14-20.23 700.59-18.8 702.04-17.38 703.49-15.95 704.09-14.38 704.69-12.8 704.69-10.85L704.69-10.85Q704.69-8.35 703.69-6.25 702.69-4.15 700.89-2.65 699.09-1.15 696.59-0.33 694.09 0.5 691.09 0.5L691.09 0.5Q688.24 0.5 685.96-0.3 683.69-1.1 681.34-3L681.34-3 679.94-0.55 678.79-0.55ZM731.39-16.4L720.49 7.85Q718.19 13 713.34 13L713.34 13Q710.19 13 710.19 10.65L710.19 10.65Q710.19 9.4 711.06 8.83 711.94 8.25 714.29 7.85L714.29 7.85Q715.34 7.7 716.09 7.43 716.84 7.15 717.44 6.73 718.04 6.3 718.51 5.65 718.99 5 719.44 4.05L719.44 4.05 721.19 0.55 711.59-20.3Q710.94-21.7 710.46-22.53 709.99-23.35 709.46-23.83 708.94-24.3 708.29-24.48 707.64-24.65 706.64-24.75L706.64-24.75 706.64-26.5 719.89-26.5 719.89-24.75Q716.54-24.75 716.54-23.1L716.54-23.1Q716.54-22.45 716.94-21.05 717.34-19.65 717.94-18.2L717.94-18.2 723.44-4.9 723.69-4.9 728.24-16.15Q728.89-17.8 729.31-18.85 729.74-19.9 729.96-20.58 730.19-21.25 730.26-21.7 730.34-22.15 730.34-22.55L730.34-22.55Q730.34-23.85 729.61-24.3 728.89-24.75 726.84-24.75L726.84-24.75 726.84-26.5 737.84-26.5 737.84-24.75Q736.89-24.75 736.24-24.5 735.59-24.25 734.91-23.38 734.24-22.5 733.41-20.85 732.59-19.2 731.39-16.4L731.39-16.4ZM742.93-1.75L741.93 0 740.83 0 740.83-8.6 742.08-8.6Q744.03-1.55 749.18-1.55L749.18-1.55Q751.18-1.55 752.36-2.53 753.53-3.5 753.53-5.5L753.53-5.5Q753.53-6.25 753.31-6.78 753.08-7.3 752.46-7.88 751.83-8.45 750.71-9.2 749.58-9.95 747.73-11.1L747.73-11.1Q746.03-12.15 744.78-13.05 743.53-13.95 742.68-14.88 741.83-15.8 741.41-16.85 740.98-17.9 740.98-19.3L740.98-19.3Q740.98-21 741.56-22.43 742.13-23.85 743.13-24.85 744.13-25.85 745.48-26.43 746.83-27 748.43-27L748.43-27Q749.78-27 751.23-26.58 752.68-26.15 753.78-25.45L753.78-25.45 754.78-26.5 755.73-26.5 755.73-19.3 754.43-19.3Q753.33-22.35 752.03-23.65 750.73-24.95 748.83-24.95L748.83-24.95Q747.13-24.95 746.11-24.05 745.08-23.15 745.08-21.55L745.08-21.55Q745.08-20.7 745.36-20.08 745.63-19.45 746.23-18.85 746.83-18.25 747.76-17.63 748.68-17 749.98-16.2L749.98-16.2Q752.13-14.85 753.66-13.8 755.18-12.75 756.13-11.73 757.08-10.7 757.53-9.6 757.98-8.5 757.98-7.1L757.98-7.1Q757.98-3.55 755.68-1.53 753.38 0.5 749.63 0.5L749.63 0.5Q745.73 0.5 742.93-1.75L742.93-1.75ZM765.33-23.35L762.33-23.35 762.33-25.2Q764.98-26.75 766.48-28.3 767.98-29.85 768.78-32L768.78-32 770.23-32 770.23-25.7 776.93-25.7 776.93-23.35 770.23-23.35 770.23-8.15Q770.23-6.4 770.41-5.2 770.58-4 770.98-3.28 771.38-2.55 772.03-2.25 772.68-1.95 773.68-1.95L773.68-1.95Q774.93-1.95 775.81-2.48 776.68-3 777.53-4.25L777.53-4.25 778.78-3.3Q778.08-1.45 776.36-0.48 774.63 0.5 772.08 0.5L772.08 0.5Q768.78 0.5 767.06-1.07 765.33-2.65 765.33-5.6L765.33-5.6 765.33-23.35ZM803.78-6.05L805.33-4.65Q801.08 0.5 794.78 0.5L794.78 0.5Q791.83 0.5 789.43-0.48 787.03-1.45 785.3-3.23 783.58-5 782.63-7.48 781.68-9.95 781.68-12.95L781.68-12.95Q781.68-16 782.68-18.6 783.68-21.2 785.5-23.05 787.33-24.9 789.85-25.95 792.38-27 795.38-27L795.38-27Q800.23-27 802.88-24.38 805.53-21.75 805.53-16.85L805.53-16.85Q805.53-16.15 805.25-16 804.98-15.85 803.98-15.85L803.98-15.85 787.53-15.85Q787.43-15.45 787.38-14.88 787.33-14.3 787.33-13.6L787.33-13.6Q787.33-11 787.95-8.88 788.58-6.75 789.75-5.25 790.93-3.75 792.55-2.93 794.18-2.1 796.18-2.1L796.18-2.1Q798.28-2.1 800.08-3.03 801.88-3.95 803.78-6.05L803.78-6.05ZM787.88-18.15L797.08-18.15Q798.08-18.15 798.68-18.2 799.28-18.25 799.58-18.4 799.88-18.55 799.98-18.82 800.08-19.1 800.08-19.55L800.08-19.55Q800.08-21.85 798.6-23.23 797.13-24.6 794.58-24.6L794.58-24.6Q789.18-24.6 787.88-18.15L787.88-18.15ZM818.93-14.35L818.93-8Q818.93-5.9 819.03-4.7 819.13-3.5 819.55-2.88 819.98-2.25 820.78-2.05 821.58-1.85 823.03-1.75L823.03-1.75 823.03 0 809.73 0 809.73-1.75Q811.18-1.85 812.03-2.05 812.88-2.25 813.33-2.85 813.78-3.45 813.9-4.58 814.03-5.7 814.03-7.6L814.03-7.6 814.03-14Q814.03-16.85 813.95-18.75 813.88-20.65 813.68-21.35L813.68-21.35Q813.53-22 813.33-22.38 813.13-22.75 812.68-22.98 812.23-23.2 811.5-23.28 810.78-23.35 809.63-23.35L809.63-23.35 809.63-25.1 817.78-27 818.43-22 818.68-22Q820.93-24.55 823.4-25.78 825.88-27 828.88-27L828.88-27Q832.03-27 834.18-25.73 836.33-24.45 837.18-22.05L837.18-22.05 837.38-22.05Q839.23-24.4 841.88-25.7 844.53-27 847.53-27L847.53-27Q849.88-27 851.8-26.23 853.73-25.45 854.73-24.1L854.73-24.1Q855.63-22.95 856-21.08 856.38-19.2 856.38-15.95L856.38-15.95 856.38-8Q856.38-5.95 856.5-4.75 856.63-3.55 857.03-2.9 857.43-2.25 858.25-2.05 859.08-1.85 860.53-1.75L860.53-1.75 860.53 0 847.23 0 847.23-1.75Q848.63-1.8 849.48-2.02 850.33-2.25 850.78-2.88 851.23-3.5 851.35-4.6 851.48-5.7 851.48-7.6L851.48-7.6 851.48-13.9Q851.48-16.75 851.18-18.73 850.88-20.7 850.18-21.93 849.48-23.15 848.35-23.7 847.23-24.25 845.63-24.25L845.63-24.25Q843.43-24.25 841.5-23.03 839.58-21.8 838.48-19.75L838.48-19.75Q838.23-19.25 838.05-18.78 837.88-18.3 837.78-17.73 837.68-17.15 837.65-16.35 837.63-15.55 837.63-14.35L837.63-14.35 837.63-8Q837.63-5.95 837.73-4.75 837.83-3.55 838.25-2.9 838.68-2.25 839.53-2.05 840.38-1.85 841.83-1.75L841.83-1.75 841.83 0 828.53 0 828.53-1.75Q829.93-1.85 830.78-2.05 831.63-2.25 832.05-2.85 832.48-3.45 832.6-4.58 832.73-5.7 832.73-7.6L832.73-7.6 832.73-13.9Q832.73-16.8 832.43-18.78 832.13-20.75 831.45-21.98 830.78-23.2 829.68-23.73 828.58-24.25 826.98-24.25L826.98-24.25Q824.73-24.25 822.75-23.03 820.78-21.8 819.78-19.75L819.78-19.75Q819.53-19.25 819.35-18.78 819.18-18.3 819.08-17.73 818.98-17.15 818.95-16.35 818.93-15.55 818.93-14.35L818.93-14.35Z" opacity="1" transform="matrix(1,0,0,1,0,0)" fill="#e6b17e" class="slogan-text-1" data-fill-palette-color="secondary" id="text-1"></path></svg></g></svg></g></svg></g></svg></g><g transform="matrix(1,0,0,1,0,0.40690281929386174)"><svg viewBox="0 0 170.9813866931847 162.76112771755083" height="162.76112771755083" width="170.9813866931847"><g><svg xmlns="http://www.w3.org/2000/svg" xmlns:xlink="http://www.w3.org/1999/xlink" version="1.1" x="0" y="0" viewBox="3.3000000000000043 5.5 93.6 89.1" style="enable-background:new 0 0 100 100;" xml:space="preserve" height="162.76112771755083" width="170.9813866931847" class="icon-icon-0" data-fill-palette-color="accent" id="icon-0"><path d="M45.3 26.3H28.4c-1.1 0-2 0.9-2 2v14.3c0 1.1 0.9 2 2 2h16.9c1.1 0 2-0.9 2-2V28.3C47.3 27.2 46.4 26.3 45.3 26.3zM43.3 40.6H30.4V30.3h12.9V40.6zM71.8 42.6c0 1.1-0.9 2-2 2H56.7c-1.1 0-2-0.9-2-2s0.9-2 2-2h13.2C70.9 40.6 71.8 41.5 71.8 42.6zM54.7 28.3c0-1.1 0.9-2 2-2h13.2c1.1 0 2 0.9 2 2s-0.9 2-2 2H56.7C55.6 30.3 54.7 29.4 54.7 28.3zM71.8 35.4c0 1.1-0.9 2-2 2H56.7c-1.1 0-2-0.9-2-2s0.9-2 2-2h13.2C70.9 33.4 71.8 34.3 71.8 35.4zM94.8 90.5H72.9l-10.4-25h23.9c1.1 0 2-0.9 2-2v-6.8c0-1.1-0.9-2-2-2h-0.9V16.3h0.9c1.1 0 2-0.9 2-2V7.5c0-1.1-0.9-2-2-2H13.6c-1.1 0-2 0.9-2 2v6.8c0 1.1 0.9 2 2 2h1.3v38.5h-1.3c-1.1 0-2 0.9-2 2v6.8c0 1.1 0.9 2 2 2h23.1l-10.4 25h-21c-1.1 0-2 0.9-2 2s0.9 2 2 2h89.6c1.1 0 2-0.9 2-2S95.9 90.5 94.8 90.5zM68.6 90.5h-2l-10.4-25h2L68.6 90.5zM15.6 9.5h68.9v2.8H15.6V9.5zM18.9 16.3h62.6v38.5H18.9V16.3zM15.6 58.7h68.9v2.8H59.5h-6.3H46h-6.3H15.6V58.7zM41 65.5h2l-10.4 25h-2L41 65.5zM47.3 65.5h4.6l10.4 25H36.9L47.3 65.5z" fill="#e6b17e" data-fill-palette-color="accent"></path></svg></g></svg></g></svg></g><defs></defs></svg><rect width="395.52" height="102.07183694857868" fill="none" stroke="none" visibility="hidden"></rect></g></svg></g></svg>